<mxfile host="65bd71144e">
    <diagram id="j_UpX0C2kKHRYFkCWyXB" name="Page-1">
        <mxGraphModel dx="860" dy="741" grid="1" gridSize="10" guides="1" tooltips="1" connect="1" arrows="1" fold="1" page="1" pageScale="1" pageWidth="850" pageHeight="1100" math="0" shadow="0">
            <root>
                <mxCell id="0"/>
                <mxCell id="1" parent="0"/>
                <mxCell id="6" value="" style="group;fillColor=#ffe6cc;strokeColor=#d79b00;container=0;" parent="1" vertex="1" connectable="0">
                    <mxGeometry x="40" y="120" width="80" height="110" as="geometry"/>
                </mxCell>
                <mxCell id="7" value="" style="endArrow=classic;html=1;" parent="1" edge="1">
                    <mxGeometry width="50" height="50" relative="1" as="geometry">
                        <mxPoint x="130" y="170" as="sourcePoint"/>
                        <mxPoint x="180" y="120" as="targetPoint"/>
                    </mxGeometry>
                </mxCell>
                <mxCell id="8" value="" style="endArrow=classic;html=1;" parent="1" edge="1">
                    <mxGeometry width="50" height="50" relative="1" as="geometry">
                        <mxPoint x="130" y="180.00000000000006" as="sourcePoint"/>
                        <mxPoint x="180" y="230" as="targetPoint"/>
                    </mxGeometry>
                </mxCell>
                <mxCell id="16" value="" style="group;fillColor=#f5f5f5;fontColor=#333333;strokeColor=#666666;container=0;" parent="1" vertex="1" connectable="0">
                    <mxGeometry x="200" y="180" width="80" height="110" as="geometry"/>
                </mxCell>
                <mxCell id="13" value="" style="rounded=0;whiteSpace=wrap;html=1;fillColor=#f5f5f5;fontColor=#333333;strokeColor=#666666;" parent="1" vertex="1">
                    <mxGeometry x="200" y="60" width="80" height="110" as="geometry"/>
                </mxCell>
                <mxCell id="14" value="" style="shape=umlActor;verticalLabelPosition=bottom;verticalAlign=top;html=1;outlineConnect=0;" parent="1" vertex="1">
                    <mxGeometry x="230" y="130" width="20" height="40" as="geometry"/>
                </mxCell>
                <mxCell id="15" value="" style="ellipse;whiteSpace=wrap;html=1;aspect=fixed;fillColor=#f8cecc;strokeColor=#b85450;" parent="1" vertex="1">
                    <mxGeometry x="235" y="110" width="10" height="10" as="geometry"/>
                </mxCell>
                <mxCell id="20" value="" style="endArrow=classic;html=1;" parent="1" edge="1">
                    <mxGeometry width="50" height="50" relative="1" as="geometry">
                        <mxPoint x="290" y="120" as="sourcePoint"/>
                        <mxPoint x="350" y="120" as="targetPoint"/>
                    </mxGeometry>
                </mxCell>
                <mxCell id="21" value="" style="endArrow=classic;html=1;" parent="1" edge="1">
                    <mxGeometry width="50" height="50" relative="1" as="geometry">
                        <mxPoint x="290" y="240.00000000000006" as="sourcePoint"/>
                        <mxPoint x="350" y="240" as="targetPoint"/>
                        <Array as="points">
                            <mxPoint x="300" y="240"/>
                        </Array>
                    </mxGeometry>
                </mxCell>
                <mxCell id="29" value="Shift to right" style="text;html=1;strokeColor=none;fillColor=none;align=center;verticalAlign=middle;whiteSpace=wrap;rounded=0;" parent="1" vertex="1">
                    <mxGeometry x="130" y="60" width="60" height="30" as="geometry"/>
                </mxCell>
                <mxCell id="30" value="Shift to right" style="text;html=1;strokeColor=none;fillColor=none;align=center;verticalAlign=middle;whiteSpace=wrap;rounded=0;" parent="1" vertex="1">
                    <mxGeometry x="290" y="250" width="60" height="30" as="geometry"/>
                </mxCell>
                <mxCell id="32" value="" style="group;fillColor=#f5f5f5;fontColor=#333333;strokeColor=#666666;container=0;" parent="1" vertex="1" connectable="0">
                    <mxGeometry x="360" y="59" width="80" height="110" as="geometry"/>
                </mxCell>
                <mxCell id="33" value="Rotate by 180°" style="text;html=1;strokeColor=none;fillColor=none;align=center;verticalAlign=middle;whiteSpace=wrap;rounded=0;" parent="1" vertex="1">
                    <mxGeometry x="290" y="60" width="60" height="30" as="geometry"/>
                </mxCell>
                <mxCell id="34" value="Rotate by 180°" style="text;html=1;strokeColor=none;fillColor=none;align=center;verticalAlign=middle;whiteSpace=wrap;rounded=0;" parent="1" vertex="1">
                    <mxGeometry x="130" y="250" width="60" height="30" as="geometry"/>
                </mxCell>
                <mxCell id="3" value="" style="rounded=0;whiteSpace=wrap;html=1;fillColor=#f5f5f5;fontColor=#333333;strokeColor=#666666;" parent="1" vertex="1">
                    <mxGeometry x="40" y="120" width="80" height="110" as="geometry"/>
                </mxCell>
                <mxCell id="5" value="" style="shape=umlActor;verticalLabelPosition=bottom;verticalAlign=top;html=1;outlineConnect=0;" parent="1" vertex="1">
                    <mxGeometry x="40" y="190" width="20" height="40" as="geometry"/>
                </mxCell>
                <mxCell id="10" value="" style="ellipse;whiteSpace=wrap;html=1;aspect=fixed;fillColor=#f8cecc;strokeColor=#b85450;" parent="1" vertex="1">
                    <mxGeometry x="75" y="170" width="10" height="10" as="geometry"/>
                </mxCell>
                <mxCell id="22" value="" style="rounded=0;whiteSpace=wrap;html=1;fillColor=#f5f5f5;fontColor=#333333;strokeColor=#666666;" parent="1" vertex="1">
                    <mxGeometry x="360" y="59" width="80" height="110" as="geometry"/>
                </mxCell>
                <mxCell id="23" value="" style="ellipse;whiteSpace=wrap;html=1;aspect=fixed;fillColor=#f8cecc;strokeColor=#b85450;" parent="1" vertex="1">
                    <mxGeometry x="395" y="109" width="10" height="10" as="geometry"/>
                </mxCell>
                <mxCell id="24" value="" style="shape=umlActor;verticalLabelPosition=bottom;verticalAlign=top;html=1;outlineConnect=0;rotation=-180;container=1;" parent="1" vertex="1">
                    <mxGeometry x="390" y="59" width="20" height="40" as="geometry"/>
                </mxCell>
                <mxCell id="25" value="" style="group;fillColor=#f5f5f5;fontColor=#333333;strokeColor=#666666;container=0;" parent="1" vertex="1" connectable="0">
                    <mxGeometry x="360" y="180" width="80" height="110" as="geometry"/>
                </mxCell>
                <mxCell id="27" value="" style="shape=umlActor;verticalLabelPosition=bottom;verticalAlign=top;html=1;outlineConnect=0;rotation=-180;" parent="1" vertex="1">
                    <mxGeometry x="455" y="180" width="20" height="40" as="geometry"/>
                </mxCell>
                <mxCell id="26" value="" style="rounded=0;whiteSpace=wrap;html=1;fillColor=#f5f5f5;fontColor=#333333;strokeColor=#666666;" parent="1" vertex="1">
                    <mxGeometry x="360" y="180" width="80" height="110" as="geometry"/>
                </mxCell>
                <mxCell id="28" value="" style="ellipse;whiteSpace=wrap;html=1;aspect=fixed;fillColor=#f8cecc;strokeColor=#b85450;" parent="1" vertex="1">
                    <mxGeometry x="395" y="230" width="10" height="10" as="geometry"/>
                </mxCell>
                <mxCell id="17" value="" style="rounded=0;whiteSpace=wrap;html=1;fillColor=#f5f5f5;fontColor=#333333;strokeColor=#666666;" parent="1" vertex="1">
                    <mxGeometry x="200" y="180" width="80" height="110" as="geometry"/>
                </mxCell>
                <mxCell id="18" value="" style="shape=umlActor;verticalLabelPosition=bottom;verticalAlign=top;html=1;outlineConnect=0;rotation=-180;" parent="1" vertex="1">
                    <mxGeometry x="260" y="180" width="20" height="40" as="geometry"/>
                </mxCell>
                <mxCell id="19" value="" style="ellipse;whiteSpace=wrap;html=1;aspect=fixed;fillColor=#f8cecc;strokeColor=#b85450;" parent="1" vertex="1">
                    <mxGeometry x="235" y="230" width="10" height="10" as="geometry"/>
                </mxCell>
            </root>
        </mxGraphModel>
    </diagram>
</mxfile>